<?xml version="1.0" encoding="UTF-8"?>
<svg version="1.1" xmlns="http://www.w3.org/2000/svg" width="500" height="500">
<path d="M0 0 C165 0 330 0 500 0 C500 165 500 330 500 500 C335 500 170 500 0 500 C0 335 0 170 0 0 Z " fill="#313131" transform="translate(0,0)"/>
<path d="M0 0 C6.78519658 5.55895623 11.06914624 12.90475119 14.98046875 20.640625 C15.46378662 21.58099609 15.94710449 22.52136719 16.44506836 23.49023438 C25.02140526 40.32160079 33.21922106 57.34905505 41.46630859 74.34326172 C43.46868586 78.46890474 45.48207429 82.58897472 47.5 86.70703125 C62.91796875 118.32437129 62.91796875 118.32437129 62.91796875 124.390625 C63.57796875 124.390625 64.23796875 124.390625 64.91796875 124.390625 C64.82807175 123.5737043 64.82807175 123.5737043 64.73635864 122.74028015 C62.17996651 98.12946097 62.68457292 73.42510715 62.78063965 48.71691895 C62.80139084 42.80283045 62.81029485 36.88872406 62.8203125 30.97460938 C62.84152673 19.44656855 62.87549387 7.91860579 62.91796875 -3.609375 C70.12713375 -7.2139575 79.81597039 -6.81528093 87.73046875 -6.859375 C88.51800537 -6.868479 89.30554199 -6.87758301 90.11694336 -6.88696289 C96.87918905 -6.85210229 103.14354264 -5.80985554 109.23046875 -2.671875 C109.86597656 -2.35347656 110.50148438 -2.03507813 111.15625 -1.70703125 C115.90686236 1.25288465 117.49163688 5.15169922 118.91796875 10.390625 C119.19099149 13.11220121 119.33737085 15.59891842 119.31910706 18.31109619 C119.32590373 19.06648296 119.33270039 19.82186973 119.33970302 20.60014701 C119.35855962 23.10890032 119.35624585 25.61716064 119.35375977 28.12597656 C119.36274398 29.93345766 119.37295375 31.74093302 119.3842926 33.54840088 C119.4107157 38.44063269 119.41782243 43.33270696 119.41973996 48.22500324 C119.42187539 51.28181145 119.42828545 54.33857982 119.43623161 57.39537811 C119.46394991 68.05950966 119.47624033 78.72352892 119.47387695 89.38769531 C119.47207115 99.33090958 119.50380439 109.2736374 119.55110794 119.21672845 C119.59029155 127.75703235 119.60643068 136.29717681 119.60451072 144.83756995 C119.60374508 149.93727998 119.61233755 155.03655655 119.64404488 160.13617706 C119.67302087 164.9266169 119.67337383 169.71620647 119.65149498 174.50667572 C119.64834987 176.2659275 119.65549137 178.02523167 119.67357635 179.78439331 C119.69664528 182.18330048 119.68287681 184.57924762 119.65968323 186.97808838 C119.67511392 187.67691454 119.69054461 188.3757407 119.70644289 189.09574342 C119.66463566 191.04718399 119.66463566 191.04718399 118.91796875 194.390625 C115.01207668 197.67173248 111.16335216 199.18088386 106.29296875 200.578125 C105.18695313 200.90167969 104.0809375 201.22523438 102.94140625 201.55859375 C101.94367188 201.83316406 100.9459375 202.10773438 99.91796875 202.390625 C98.9587854 202.65758179 98.9587854 202.65758179 97.98022461 202.92993164 C84.34686391 205.9755279 65.67000002 203.7900521 53.91796875 196.390625 C51.16796875 193.953125 51.16796875 193.953125 48.91796875 191.390625 C48.31597656 190.70613281 47.71398437 190.02164063 47.09375 189.31640625 C44.20810625 185.43607022 42.06635413 181.30755389 39.85546875 177.015625 C39.37722656 176.09515381 38.89898437 175.17468262 38.40625 174.22631836 C34.45987913 166.57183102 30.72210646 158.82476544 27.0402832 151.0402832 C23.96580767 144.5459771 20.78762866 138.11385038 17.54296875 131.703125 C9.37451201 115.49319764 1.54410636 99.04260185 -5.39453125 82.265625 C-5.67844727 81.57944092 -5.96236328 80.89325684 -6.25488281 80.1862793 C-8.08203125 75.65810306 -8.08203125 75.65810306 -8.08203125 73.390625 C-8.74203125 73.390625 -9.40203125 73.390625 -10.08203125 73.390625 C-10.01116082 74.04772618 -9.94029039 74.70482737 -9.86727238 75.38184071 C-9.16864137 82.34174649 -8.94423792 89.20453456 -8.96850586 96.19604492 C-8.96835983 97.31931183 -8.96821381 98.44257874 -8.96806335 99.59988403 C-8.96875414 103.27364098 -8.97650713 106.94734578 -8.984375 110.62109375 C-8.98624215 113.18370028 -8.98766465 115.74630717 -8.98866272 118.30891418 C-8.99207699 124.33989735 -8.9999401 130.3708585 -9.01001221 136.40183288 C-9.02123856 143.27498969 -9.02670014 150.14814744 -9.03170764 157.02131116 C-9.04212474 171.14442591 -9.05968328 185.26752444 -9.08203125 199.390625 C-10.66364547 199.71251493 -12.24557639 200.03284895 -13.82763672 200.35253906 C-14.70853973 200.53109436 -15.58944275 200.70964966 -16.49703979 200.89361572 C-30.19100837 203.52651782 -46.18209493 204.82947498 -58.45703125 197.328125 C-66.24184989 188.61654223 -65.66247846 178.00319865 -65.61547852 166.99487305 C-65.62254588 165.24783096 -65.63129432 163.50079499 -65.6415863 161.75376892 C-65.6639883 157.03506626 -65.6611637 152.31670042 -65.65226483 147.597965 C-65.64713993 143.65369561 -65.65445897 139.70948867 -65.66173691 135.76522571 C-65.67870378 126.46378907 -65.67519908 117.16251666 -65.65844727 107.86108398 C-65.64149346 98.26779423 -65.65741242 88.67495842 -65.68967015 79.08171815 C-65.71634797 70.83518792 -65.723648 62.58879918 -65.71515507 54.34223014 C-65.71022495 49.42088307 -65.71244739 44.49980968 -65.73294258 39.57849693 C-65.75127373 34.95632975 -65.74537275 30.3348183 -65.72074318 25.71268654 C-65.71572884 24.01675876 -65.71924124 22.32078119 -65.73189163 20.62489319 C-65.74779527 18.30989706 -65.73290091 15.99706812 -65.71022034 13.68217468 C-65.70963403 12.38713862 -65.70904772 11.09210257 -65.70844364 9.75782299 C-64.71864174 4.43727214 -61.43591263 2.36188773 -57.20703125 -0.671875 C-39.77031111 -9.87876387 -17.30144301 -9.03446707 0 0 Z " fill="#FEFEFE" transform="translate(319.08203125,148.609375)"/>
<path d="M0 0 C6.29233538 6.20759012 10.34770295 12.22642682 10.625 21.1875 C10.50497642 30.24261256 6.67996696 37.3158251 0.3125 43.5625 C-0.368125 44.243125 -1.04875 44.92375 -1.75 45.625 C-3.6875 46.5625 -3.6875 46.5625 -5.890625 45.8359375 C-9.11147712 44.36946014 -12.23607116 42.75949262 -15.375 41.125 C-30.37272355 33.48041454 -47.42049242 30.77032637 -63.80859375 35.51953125 C-77.20356421 40.3722546 -86.135978 46.78540237 -92.6875 59.5625 C-100.15485878 78.85704194 -102.37181039 102.8714585 -94.17578125 122.3125 C-87.53851045 136.90798675 -77.82000034 145.17456742 -62.87890625 150.8359375 C-46.34798164 156.31677882 -26.04591557 153.57513094 -10.64453125 146.08203125 C-8.9760545 145.22251293 -7.32390191 144.3292102 -5.703125 143.3828125 C-3.6875 142.5625 -3.6875 142.5625 -1.609375 142.7421875 C3.78973326 145.04668493 7.48743125 151.53033835 9.609375 156.78125 C11.60074576 164.65822768 11.89251954 173.76261553 8 181.0625 C-1.27898215 194.03124211 -17.11844115 198.63211989 -32.10546875 201.1328125 C-37.98680952 201.81780752 -43.90803055 201.74850832 -49.8215332 201.74780273 C-51.85324468 201.74997672 -53.88440061 201.76814993 -55.91601562 201.78710938 C-84.18715011 201.91244356 -111.58831836 192.15521734 -132 172.3203125 C-152.05318382 151.74248143 -159.87596928 125.9262604 -159.87280273 97.68383789 C-159.87497057 95.5292528 -159.89312162 93.37519679 -159.91210938 91.22070312 C-160.03547877 61.5668193 -151.04595984 34.83921247 -130 13.3125 C-99.76841614 -16.48714588 -34.50677457 -29.42477537 0 0 Z " fill="#FEFEFE" transform="translate(211.6875,153.4375)"/>
<path d="M0 0 C9.48837209 3.55813953 9.48837209 3.55813953 12 7 C14.350317 12.42950667 15.44056734 16.93928104 15.39440918 22.88250732 C15.40354584 24.00946215 15.40354584 24.00946215 15.41286707 25.15918374 C15.42939736 27.65413169 15.42473586 30.1485637 15.41992188 32.64355469 C15.42726763 34.44118272 15.43585533 36.23880603 15.44558716 38.03642273 C15.46774873 42.90180689 15.47073685 47.76702145 15.46883965 52.63244915 C15.46871979 56.69600048 15.47728912 60.75951606 15.48561716 64.82305741 C15.50482866 74.4053374 15.50774187 83.98753026 15.50097656 93.56982422 C15.49432387 103.4584528 15.5172546 113.3467095 15.55429029 123.23526263 C15.58494816 131.72885629 15.59635199 140.22233 15.59245348 148.71597791 C15.59038343 153.78768206 15.59590596 158.85909621 15.62034607 163.93074799 C15.6425485 168.69485125 15.64078995 173.45834655 15.62041855 178.22245216 C15.61699791 179.97202079 15.62214277 181.72162987 15.63640213 183.47114372 C15.65450658 185.85662059 15.64191457 188.2400149 15.62145996 190.62542725 C15.63397781 191.32036246 15.64649566 192.01529768 15.65939283 192.73129153 C15.59182197 196.39731078 15.25117894 197.74867186 12.61740875 200.3840065 C10.11146557 201.93118093 7.74783472 203.13559452 5 204.1875 C3.7625 204.67283203 3.7625 204.67283203 2.5 205.16796875 C-4.61684885 207.53654501 -11.76122017 207.22045737 -19.1875 207.25 C-20.46431641 207.270625 -21.74113281 207.29125 -23.05664062 207.3125 C-34.86431784 207.36106628 -45.39701224 205.54010216 -54.05078125 196.96875 C-59 191.49386273 -59 191.49386273 -59 189 C-57.99324219 189.2165625 -56.98648437 189.433125 -55.94921875 189.65625 C-36.11535077 193.68030553 -19.29903823 193.14951912 -1 184 C-0.67 123.28 -0.34 62.56 0 0 Z " fill="#848484" transform="translate(438,159)"/>
<path d="M0 0 C6.39101161 3.67483168 12.30192908 8.98488392 15.2109375 15.86328125 C17.19069881 23.73332248 17.26025878 32.6677033 13.3984375 39.953125 C10.78857109 43.77315294 7.98534574 47.57475402 4 50 C-0.89955536 49.86465317 -4.59602049 47.88361502 -8.875 45.625 C-24.2376362 37.69914367 -41.44887538 35.0148594 -58.328125 40.02734375 C-71.25899772 44.73463513 -79.50880237 51.81042277 -86 64 C-93.73503219 80.62670471 -94.2274163 102.2871257 -90 120 C-88.7758024 123.30682645 -87.43735187 126.48693184 -85.92578125 129.671875 C-85.46751953 130.82429688 -85.46751953 130.82429688 -85 132 C-85.33 132.66 -85.66 133.32 -86 134 C-98.65403169 123.98581166 -105.40197959 111.18399505 -107.73632812 95.27490234 C-110.00756754 75.67915341 -107.72518873 54.18675334 -95.25 38.1875 C-85.8951773 28.25253326 -72.91700212 22.55509592 -59.37109375 21.796875 C-42.82871746 21.59974638 -27.70920718 25.42630026 -14 35 C-7.10324448 32.19021071 -2.74063764 25.82940281 0.25 19.25 C1.72239731 12.86961164 1.3447596 6.3876081 0 0 Z " fill="#838383" transform="translate(220,164)"/>
<path d="M0 0 C0.66 0 1.32 0 2 0 C3.97718549 4.50162428 5.95264658 9.00399976 7.92651367 13.50708008 C8.59824035 15.03886348 9.27043773 16.57044055 9.94311523 18.10180664 C10.9099309 20.30300689 11.87505129 22.50494361 12.83984375 24.70703125 C13.14091537 25.39150833 13.441987 26.07598541 13.75218201 26.78120422 C15.65342402 31.12653421 17.13297659 34.62608704 17.08229065 39.38493347 C17.07525116 40.28095779 17.06821167 41.17698212 17.06095886 42.10015869 C17.04801285 43.08055115 17.03506683 44.0609436 17.02172852 45.07104492 C17.01212097 46.10536148 17.00251343 47.13967804 16.99261475 48.20533752 C16.95958492 51.63044965 16.91926759 55.05543581 16.87890625 58.48046875 C16.85460904 60.85272271 16.83076528 63.22498136 16.80735779 65.59724426 C16.74447723 71.84607268 16.67542175 78.09481834 16.60510254 84.34356689 C16.534455 90.71793849 16.46961661 97.09236885 16.40429688 103.46679688 C16.27523332 115.97792884 16.13984685 128.48898416 16 141 C14.24526493 141.32923665 12.48999807 141.65563987 10.73451233 141.98085022 C9.26840311 142.2539557 9.26840311 142.2539557 7.77267551 142.53257847 C2.02269305 143.50191859 -3.74684496 143.41042245 -9.5625 143.4375 C-10.81224609 143.47037109 -12.06199219 143.50324219 -13.34960938 143.53710938 C-21.19134662 143.58243734 -27.58072365 142.8045583 -34 138 C-36.82576416 134.55877811 -38.59513785 131.21458645 -40 127 C-39.01580078 127.24169922 -39.01580078 127.24169922 -38.01171875 127.48828125 C-34.26783179 128.12440212 -30.5976829 128.18418257 -26.8125 128.1875 C-26.12736328 128.19974609 -25.44222656 128.21199219 -24.73632812 128.22460938 C-16.00086306 128.24769871 -7.83445439 126.98160604 1 126 C0.67 84.42 0.34 42.84 0 0 Z " fill="#838383" transform="translate(309,222)"/>
<path d="M0 0 C4.94880288 1.79956468 8.04887868 7.27768774 10.4375 11.75 C13.26963028 18.68752921 13.26930605 26.99820117 11.4375 34.2109375 C7.00370772 44.22655756 -2.223555 49.72041814 -11.9375 53.75 C-23.4078228 58.11543872 -35.69370741 59.14296253 -47.875 59.125 C-49.03797607 59.12338867 -50.20095215 59.12177734 -51.39916992 59.12011719 C-62.56091924 58.9647226 -73.09381951 57.28279693 -83.9375 54.75 C-85.19304687 54.48445313 -86.44859375 54.21890625 -87.7421875 53.9453125 C-105.95062241 49.52987216 -120.99131378 38.9104257 -133.9375 25.75 C-133.6075 25.09 -133.2775 24.43 -132.9375 23.75 C-132.30585938 24.18570312 -131.67421875 24.62140625 -131.0234375 25.0703125 C-111.20652004 38.26255438 -89.23268977 43.16155178 -65.6875 43.0625 C-64.67085266 43.06026428 -64.67085266 43.06026428 -63.63366699 43.0579834 C-44.99230243 42.98440629 -25.92485675 40.99721998 -10.9375 28.75 C-5.51253113 22.24856383 -3.78651951 17.51022836 -3.875 9.125 C-3.88176758 7.92230469 -3.88176758 7.92230469 -3.88867188 6.6953125 C-3.90046832 4.71350994 -3.91840395 2.73174567 -3.9375 0.75 C-1.9375 -0.25 -1.9375 -0.25 0 0 Z " fill="#828282" transform="translate(224.9375,311.25)"/>
<path d="M0 0 C9.75333549 3.18373127 14.4602944 14.01752904 18.83984375 22.625 C21.70538803 28.37980342 24.4571847 34.18953606 27.20556641 40.00097656 C31.89618662 49.88152558 36.78704192 59.65975243 41.6875 69.4375 C42.09925476 70.25914642 42.51100952 71.08079285 42.9352417 71.92733765 C45.28744606 76.61959133 47.64253569 81.31038696 50 86 C50.99 84.515 50.99 84.515 52 83 C52.33 91.91 52.66 100.82 53 110 C52.34 110 51.68 110 51 110 C50.72961914 109.34330322 50.45923828 108.68660645 50.18066406 108.01000977 C41.34152348 86.62529098 31.48866688 65.85314371 21.08520508 45.18896484 C17.21812869 37.49115545 13.49299557 29.72933552 9.79736328 21.94799805 C6.9314085 15.91923127 3.99748699 9.93881292 0.92578125 4.01171875 C0 2 0 2 0 0 Z " fill="#848484" transform="translate(331,163)"/>
</svg>
